<?xml version="1.0" encoding="UTF-8" standalone="no"?> <svg xmlns="http://www.w3.org/2000/svg" width="512" height="512" viewBox="0 0 512 512">    <g>    <g>      <g>        <rect x="184" y="16" width="64" height="24" fill="#ffda44"/>        <rect x="184" y="472" width="64" height="24" fill="#ffda44"/>        <rect x="184" y="472" width="64" height="24" fill="#d8d7da"/>        <path d="M416,60v72a19.994,19.994,0,0,1-20,20H224V40H396A19.994,19.994,0,0,1,416,60Z" fill="#acabb1"/>        <path d="M224,40V152H36a19.994,19.994,0,0,1-20-20V60A19.994,19.994,0,0,1,36,40Z" fill="#3e3d42"/>        <rect x="56" y="152" width="320" height="48" fill="#787680"/>        <circle cx="64" cy="96" r="16" fill="#ffda44"/>        <circle cx="120" cy="96" r="16" fill="#ffda44"/>        <circle cx="176" cy="96" r="16" fill="#ffda44"/>        <path d="M416,220v72a19.994,19.994,0,0,1-20,20H224V200H396A19.994,19.994,0,0,1,416,220Z" fill="#acabb1"/>        <path d="M224,200V312H36a19.994,19.994,0,0,1-20-20V220a19.994,19.994,0,0,1,20-20Z" fill="#3e3d42"/>        <rect x="56" y="312" width="320" height="48" fill="#787680"/>        <circle cx="64" cy="256" r="16" fill="#ffda44"/>        <circle cx="120" cy="256" r="16" fill="#ffda44"/>        <circle cx="176" cy="256" r="16" fill="#ffda44"/>        <path d="M416,380v72a19.994,19.994,0,0,1-20,20H224V360H396A19.994,19.994,0,0,1,416,380Z" fill="#acabb1"/>        <path d="M224,360V472H36a19.994,19.994,0,0,1-20-20V380a19.994,19.994,0,0,1,20-20Z" fill="#3e3d42"/>        <circle cx="64" cy="416" r="16" fill="#ffda44"/>        <circle cx="120" cy="416" r="16" fill="#ffda44"/>        <circle cx="176" cy="416" r="16" fill="#ffda44"/>      </g>      <path d="M460.853,454.8,400,496l-60.853-41.2A80,80,0,0,1,304,388.554V271l96-31,96,31V388.554A80,80,0,0,1,460.853,454.8Z" fill="#ff9811"/>      <rect x="352" y="352" width="96" height="64" fill="#3e3d42"/>    </g>    <g>      <path d="M498.46,263.39,424,239.34V220a28.031,28.031,0,0,0-28-28H384V160h12a28.031,28.031,0,0,0,28-28V60a28.031,28.031,0,0,0-28-28H256V16a8,8,0,0,0-8-8H184a8,8,0,0,0-8,8V32H36A28.031,28.031,0,0,0,8,60v72a28.031,28.031,0,0,0,28,28H48v32H36A28.031,28.031,0,0,0,8,220v72a28.031,28.031,0,0,0,28,28H48v32H36A28.031,28.031,0,0,0,8,380v72a28.031,28.031,0,0,0,28,28H176v16a8,8,0,0,0,8,8h64a8,8,0,0,0,8-8V480H362.1l33.41,22.62a7.994,7.994,0,0,0,8.98,0l60.85-41.2A87.894,87.894,0,0,0,504,388.55V271A7.994,7.994,0,0,0,498.46,263.39ZM396,208a12.01,12.01,0,0,1,12,12v14.18l-5.54-1.79a7.953,7.953,0,0,0-4.92,0l-96,31A7.994,7.994,0,0,0,296,271v33H232V208ZM296,320v32H64V320ZM64,192V160H368v32ZM396,48a12.01,12.01,0,0,1,12,12v72a12.01,12.01,0,0,1-12,12H232V48ZM192,24h48v8H192ZM36,144a12.01,12.01,0,0,1-12-12V60A12.01,12.01,0,0,1,36,48H216v96Zm0,160a12.01,12.01,0,0,1-12-12V220a12.01,12.01,0,0,1,12-12H216v96Zm0,160a12.01,12.01,0,0,1-12-12V380a12.01,12.01,0,0,1,12-12H216v96Zm204,24H192v-8h48Zm-8-24V368h64v20.55a87.894,87.894,0,0,0,38.66,72.87l3.81,2.58Zm256-75.45a71.936,71.936,0,0,1-31.63,59.62L400,486.34l-56.37-38.17A71.936,71.936,0,0,1,312,388.55V276.82l88-28.41,13.51,4.36.18.06L488,276.82Z"/>      <path d="M448,344h-8V320a40,40,0,0,0-80,0v24h-8a8,8,0,0,0-8,8v64a8,8,0,0,0,8,8h96a8,8,0,0,0,8-8V352A8,8,0,0,0,448,344Zm-72-24a24,24,0,0,1,48,0v24H376Zm64,88H360V360h80Z"/>      <path d="M88,256a24,24,0,1,0-24,24A24.027,24.027,0,0,0,88,256Zm-32,0a8,8,0,1,1,8,8A8.009,8.009,0,0,1,56,256Z"/>      <path d="M120,280a24,24,0,1,0-24-24A24.027,24.027,0,0,0,120,280Zm0-32a8,8,0,1,1-8,8A8.009,8.009,0,0,1,120,248Z"/>      <path d="M64,392a24,24,0,1,0,24,24A24.027,24.027,0,0,0,64,392Zm0,32a8,8,0,1,1,8-8A8.009,8.009,0,0,1,64,424Z"/>      <path d="M120,392a24,24,0,1,0,24,24A24.027,24.027,0,0,0,120,392Zm0,32a8,8,0,1,1,8-8A8.009,8.009,0,0,1,120,424Z"/>      <path d="M176,280a24,24,0,1,0-24-24A24.027,24.027,0,0,0,176,280Zm0-32a8,8,0,1,1-8,8A8.009,8.009,0,0,1,176,248Z"/>      <path d="M88,96a24,24,0,1,0-24,24A24.027,24.027,0,0,0,88,96ZM56,96a8,8,0,1,1,8,8A8.009,8.009,0,0,1,56,96Z"/>      <path d="M120,120A24,24,0,1,0,96,96,24.027,24.027,0,0,0,120,120Zm0-32a8,8,0,1,1-8,8A8.009,8.009,0,0,1,120,88Z"/>      <path d="M176,120a24,24,0,1,0-24-24A24.027,24.027,0,0,0,176,120Zm0-32a8,8,0,1,1-8,8A8.009,8.009,0,0,1,176,88Z"/>      <path d="M200,416a24,24,0,1,0-24,24A24.027,24.027,0,0,0,200,416Zm-24,8a8,8,0,1,1,8-8A8.009,8.009,0,0,1,176,424Z"/>    </g>  </g></svg>