<?xml version="1.0" encoding="UTF-8"?>
<!DOCTYPE svg PUBLIC "-//W3C//DTD SVG 1.1//EN" "http://www.w3.org/Graphics/SVG/1.1/DTD/svg11.dtd">
<!-- Creator: CorelDRAW -->
<svg xmlns="http://www.w3.org/2000/svg" xml:space="preserve" width="1.70666in" height="1.70666in" version="1.1" style="shape-rendering:geometricPrecision; text-rendering:geometricPrecision; image-rendering:optimizeQuality; fill-rule:evenodd; clip-rule:evenodd"
viewBox="0 0 1707 1707"
 xmlns:xlink="http://www.w3.org/1999/xlink">
 <defs>
  <style type="text/css">
   <![CDATA[
    .fil0 {fill:url(#id0)}
   ]]>
  </style>
  <linearGradient id="id0" gradientUnits="userSpaceOnUse" x1="4.67717" y1="853.331" x2="1701.98" y2="853.331">
   <stop offset="0" style="stop-opacity:1; stop-color:#336666"/>
   <stop offset="1" style="stop-opacity:1; stop-color:#003333"/>
  </linearGradient>
 </defs>
 <g id="Layer_x0020_1">
  <metadata id="CorelCorpID_0Corel-Layer"/>
  <path class="fil0" d="M1565 1639c-6,0 -13,-1 -20,-2 -32,-5 -60,-23 -79,-49 -19,-27 -27,-59 -21,-91 33,-201 5,-367 -82,-494 -22,-31 -61,-76 -99,-104 -12,3 -25,5 -39,5l-271 0 0 120 120 0c63,0 114,51 114,114l0 313c0,56 -40,103 -94,112 -46,85 -137,144 -241,144 -103,0 -194,-59 -240,-144 -54,-9 -95,-56 -95,-112l0 -313c0,-63 51,-114 114,-114l121 0 0 -120 -271 0c-14,0 -27,-2 -40,-5 -37,28 -77,73 -98,104 -88,127 -115,293 -82,494 11,66 -34,129 -100,140 -7,1 -14,2 -20,2 -59,0 -111,-43 -121,-102 -43,-262 -1,-494 122,-672 42,-63 121,-149 206,-196l0 -129c0,-33 12,-63 32,-86l-139 0c-74,0 -134,-60 -134,-134 0,-1 0,-2 0,-3l0 -54c0,-45 36,-81 80,-81l40 0 0 -135 -154 0c-13,0 -23,-11 -23,-24 0,-13 10,-23 23,-23l178 0 177 0c13,0 24,10 24,23 0,13 -11,24 -24,24l-154 0 0 135 40 0c44,0 80,36 80,81l0 33 80 0c16,-43 58,-74 108,-74l541 0c49,0 91,31 108,74l79 0 0 -33c0,-45 36,-81 81,-81l40 0 0 -135 -154 0c-13,0 -24,-11 -24,-24 0,-13 11,-23 24,-23l177 0 177 0c13,0 24,10 24,23 0,13 -11,24 -24,24l-154 0 0 135 40 0c45,0 81,36 81,81l0 57c0,0 0,1 0,2 -2,73 -62,132 -135,132l-138 0c20,23 32,53 32,86l0 129c85,47 163,134 206,196 123,178 165,410 122,672 -10,59 -62,102 -121,102zm-306 -788l0 0 0 0 1 -1c10,-4 19,-10 26,-18l1 -1 1 -1 0 0 1 -1 0 0 1 -1 0 0 1 -1 1 -1 0 0 1 -1 0 0c1,-2 2,-4 4,-5l0 0c0,-2 1,-3 2,-4l0 0 1 -1 0 -1c1,-1 1,-2 2,-3l0 0 1 -2 0 0 1 -2 0 0 0 0 0 -2 0 0 1 -1 0 -1 1 0 0 -1 0 -1 0 0 1 -1 0 -1 0 0 0 -1 1 -1 0 0 0 -2 0 0 1 -1 0 -1 0 -1 0 0 0 -1 0 -1 1 -1 0 0 0 -2 0 0 0 -1 0 -1 0 -1 1 -1 0 0 0 -1 0 -1 0 -1 0 -1 0 -1 0 0 0 -2 0 0 0 -2 0 -1 0 -2 0 -88 0 -143c0,-47 -38,-86 -86,-86l-8 0 -727 0 -8 0c-48,0 -87,39 -87,86l0 141c0,0 0,1 0,2l0 88c0,35 21,66 53,80 1,0 1,0 1,1 10,4 21,6 33,6l294 0 0 0 155 0 0 0 294 0c12,0 23,-3 34,-7zm-329 220l-154 0c-1,0 -1,0 -2,0l-142 0 0 0c-37,0 -67,30 -67,67l0 313c0,21 9,39 24,51 -6,-22 -9,-45 -9,-69 0,-150 123,-273 273,-273l0 0c3,0 5,0 7,0l0 0c3,0 5,1 7,1 144,7 260,127 260,272 0,24 -4,47 -9,69 14,-12 23,-31 23,-51l0 -313c0,-37 -30,-67 -67,-67l-141 0c-1,0 -2,0 -3,0zm-23 -47l0 -120 -107 0 0 120 107 0zm173 404c-3,-123 -104,-221 -227,-221 -123,0 -223,98 -226,221 0,2 0,3 0,5l0 0c0,125 102,227 226,227 125,0 227,-102 227,-227l0 0c0,-2 0,-3 0,-5zm-227 137c-72,0 -131,-59 -131,-132 0,-72 59,-131 131,-131 73,0 132,59 132,131 0,73 -59,132 -132,132zm0 -216c-46,0 -84,38 -84,84 0,47 38,85 84,85 47,0 85,-38 85,-85 0,-46 -38,-84 -85,-84zm-340 -942l680 0 0 -69 0 0c0,-38 -31,-69 -69,-69l-541 0c-39,0 -70,31 -70,69l0 69zm627 146l-574 0c-13,0 -23,-11 -23,-24 0,-13 10,-23 23,-23l574 0c13,0 24,10 24,23 0,13 -11,24 -24,24zm62 126l-697 0c-13,0 -24,-10 -24,-23 0,-13 11,-24 24,-24l697 1c13,0 23,10 23,23 0,13 -10,23 -23,23zm-62 127l-574 0c-13,0 -23,-11 -23,-24 0,-13 10,-23 23,-23l574 0c13,0 24,10 24,23 0,13 -11,24 -24,24zm100 -399l224 0c40,0 74,-27 85,-64l-214 0 0 0 -95 0 0 64zm-1082 -64c10,37 44,64 84,64l225 0 0 -64 -95 0 0 0 -214 0zm1200 -47l194 0 0 -33c0,-19 -15,-34 -34,-34l-126 0c-19,0 -34,15 -34,33l0 34zm-1203 0l194 0 0 -33c0,-19 -16,-34 -34,-34l-127 0c-18,0 -33,15 -33,33l0 34 0 0zm194 427c-69,45 -132,116 -168,168 -116,168 -155,389 -114,638 7,41 46,69 87,62 41,-7 69,-46 62,-87 -35,-210 -4,-392 89,-527 22,-31 56,-72 93,-102 -26,-21 -43,-51 -48,-83l0 -1c0,-1 0,-2 0,-3l0 0c-1,-3 -1,-6 -1,-10l0 0c0,-2 0,-4 0,-7l0 -48zm960 152c36,30 71,71 93,102 92,135 123,317 89,527 -4,20 1,40 13,57 12,16 29,27 49,30 41,7 80,-21 86,-62 42,-249 2,-470 -113,-638 -36,-52 -99,-123 -168,-168l0 48c0,1 0,2 0,4l0 0 0 0 0 3 0 1 0 2 0 1c0,1 -1,2 -1,3l0 0 0 3 0 0 0 0 0 1 0 2 -1 1 0 2 0 1 -1 3 0 1 0 2 -1 1 0 2 0 1 -1 2 0 1 -1 3 0 0 -1 3 0 0 -1 3 0 0c0,1 -1,2 -1,3l0 0c-9,21 -22,40 -40,55z"/>
 </g>
</svg>
