<svg width="100" height="100" id="Layer_1" data-name="Layer 1" xmlns="http://www.w3.org/2000/svg" viewBox="0 0 48 48">
  <path d="M39,44H9c-2.757,0-5-2.243-5-5V9c0-2.757,2.243-5,5-5h30c2.757,0,5,2.243,5,5v30c0,2.757-2.243,5-5,5ZM9,6c-1.654,0-3,1.346-3,3v30c0,1.654,1.346,3,3,3h30c1.654,0,3-1.346,3-3V9c0-1.654-1.346-3-3-3H9Z" fill="#cfe0f3" stroke-width="0"/>
  <path d="M24,2C11.85,2,2,11.85,2,24s9.85,22,22,22,22-9.85,22-22S36.15,2,24,2ZM24,37c-7.18,0-13-5.82-13-13s5.82-13,13-13,13,5.82,13,13-5.82,13-13,13Z" fill="#ff8200" stroke-width="0"/>
  <path d="M34.539,4.686c5.708,3.865,9.461,10.401,9.461,17.814,0,11.874-9.626,21.5-21.5,21.5-7.413,0-13.949-3.753-17.815-9.461,3.734,6.829,10.983,11.461,19.315,11.461,12.15,0,22-9.85,22-22,0-8.332-4.632-15.58-11.461-19.314Z" fill="#ff6500" stroke-width="0"/>
  <path d="M23,9c-7.732,0-14,6.268-14,14s6.268,14,14,14c.169,0,.333-.019.5-.025-6.946-.265-12.5-5.964-12.5-12.975,0-7.18,5.82-13,13-13,7.011,0,12.71,5.554,12.975,12.5.006-.167.025-.331.025-.5,0-7.732-6.268-14-14-14Z" fill="#ff6500" stroke-width="0"/>
  <path d="M11,24c0-.682.068-1.346.169-2H2.095c-.059.659-.095,1.325-.095,2s.035,1.341.095,2h9.075c-.101-.654-.169-1.318-.169-2Z" fill="#cfe0f3" stroke-width="0"/>
  <path d="M37,24c0,.682-.068,1.346-.169,2h9.075c.059-.659.095-1.325.095-2s-.035-1.341-.095-2h-9.075c.101.654.169,1.318.169,2Z" fill="#cfe0f3" stroke-width="0"/>
  <path d="M22,2.095v9.075c.654-.101,1.318-.169,2-.169s1.346.068,2,.169V2.095c-.659-.059-1.325-.095-2-.095s-1.341.035-2,.095Z" fill="#cfe0f3" stroke-width="0"/>
  <path d="M26,45.905v-9.075c-.654.101-1.318.169-2,.169s-1.346-.068-2-.169v9.075c.659.059,1.325.095,2,.095s1.341-.035,2-.095Z" fill="#cfe0f3" stroke-width="0"/>
  <path d="M26,9.32v1.83c-.65-.1-1.32-.15-2-.15s-1.35.05-2,.15v-2.11c.33-.03.66-.04,1-.04,1.03,0,2.03.11,3,.32Z" fill="#b6cae5" stroke-width="0"/>
  <path d="M11,24c0,.68.05,1.35.15,2h-1.83c-.21-.97-.32-1.97-.32-3,0-.34.01-.67.04-1h2.11c-.1.65-.15,1.32-.15,2Z" fill="#b6cae5" stroke-width="0"/>
</svg>